:SAMPLES-PER-SECOND 30
:FULLY-SPECIFIED
:DEGREES
109
root  -2.343888921 37.19511257 8.294044705 84.51098633 -78.86599731 -86.6539917
lowerback  16.77549934 4.529739857 2.609669924
upperback  6.377270222 6.08671999 3.051510096
thorax  -2.619600058 2.844189882 0.6176080108
lowerneck  3.293689966 7.237090111 -3.599149942
upperneck  10.36810017 9.472949982 -0.7319700122
head  2.593980074 4.456240177 0.4694820046
lclavicle  0 -9.442270133e-015 7.951389973e-016
lhumerus  -11.51449966 -5.562650204 93.1984024
lradius  1.63939619e-031 -3.127494871e-031 117.663002
lwrist  -3.531125038e-031 7.062250077e-031 73.30220032
lhand  -1.496451383e-031 -27.76390076 20.11240005
lfingers  90 7.125020027 -90
lthumb  89.89689403 5.08795885 91.16245106
rclavicle  0 -9.442270133e-015 7.951389973e-016
rhumerus  -17.33690071 9.801589966 -77.70040131
rradius  1.877583351e-031 2.990572653e-031 57.87799835
rwrist  7.062250077e-031 7.062250077e-031 -67.64440155
rhand  -7.920061211e-032 -33.2840004 9.303460121
rfingers  -90 -7.125020027 -90
rthumb  -92.93752616 -24.25625642 -97.11982154
rfemur  4.666500092 15.14970016 4.615099907
rtibia  -0 0 28.24640083
rfoot  -8.902230431e-032 -7.413609982 7.173729897
rtoes  5.373923086 19.29304026 -105.8922705
lfemur  -37.84249878 -4.925970078 7.82502985
ltibia  -0 0 54.86869812
lfoot  8.975803997e-032 -10.41880035 -6.367440224
ltoes  -4.250644065 -19.5611806 -102.515957
110
root  -2.11738226 37.50911022 8.185199677 77.99597168 -79.3690033 -80.11499023
lowerback  17.66550064 5.189579964 2.972440004
upperback  6.332459927 7.053719997 3.394959927
thorax  -3.127690077 3.30704999 0.5201699734
lowerneck  3.395999908 6.065869808 -3.729249954
upperneck  10.40620041 7.974349976 -1.547909975
head  2.639100075 3.687370062 0.2215880007
lclavicle  0 -9.442270133e-015 7.951389973e-016
lhumerus  -12.7560997 -6.929989815 94.47389984
lradius  1.622943397e-031 -3.136064216e-031 117.3619995
lwrist  -3.531125038e-031 7.062250077e-031 72.82479858
lhand  -1.496451383e-031 -27.76390076 20.11240005
lfingers  90 7.125020027 -90
lthumb  89.89689403 5.08795885 91.16245106
rclavicle  0 -9.442270133e-015 7.951389973e-016
rhumerus  -14.96790028 8.668729782 -78.08049774
rradius  1.825874863e-031 3.022420391e-031 58.86339951
rwrist  0 3.531125038e-031 -68.21929932
rhand  -7.920061211e-032 -33.2840004 9.303460121
rfingers  -90 -7.125020027 -90
rthumb  -92.93752616 -24.25625642 -97.11982154
rfemur  5.710929871 16.39839935 4.868830204
rtibia  -0 0 27.15379906
rfoot  -4.461885058e-032 -8.409939766 3.44814992
rtoes  5.373923086 19.29304026 -105.8922705
lfemur  -37.40779877 -5.000170231 6.960579872
ltibia  -0 0 52.48080063
lfoot  -0 -8.458729744 -6.751369953
ltoes  -4.250644065 -19.5611806 -102.515957
111
root  -1.891044369 37.79599948 8.043066911 71.76300049 -79.50499725 -73.74298096
lowerback  18.2609005 5.88007021 3.453690052
upperback  6.323190212 8.078969955 3.844719887
thorax  -3.438699961 3.799190044 0.4689849913
lowerneck  3.740629911 4.853250027 -3.887049913
upperneck  10.20170021 6.398749828 -2.367729902
head  2.54885006 2.88883996 -0.03761729971
lclavicle  0 -9.442270133e-015 7.951389973e-016
lhumerus  -13.62849998 -8.401670456 95.2845993
lradius  1.606775336e-031 -3.144378644e-031 117.0670013
lwrist  -7.062250077e-031 7.062250077e-031 72.46849823
lhand  -1.496451383e-031 -27.76390076 20.11240005
lfingers  90 7.125020027 -90
lthumb  89.89689403 5.08795885 91.16245106
rclavicle  0 -9.442270133e-015 7.951389973e-016
rhumerus  -12.01749992 7.836599827 -78.18540192
rradius  1.763064146e-031 3.059485063e-031 60.04679871
rwrist  7.062250077e-031 7.062250077e-031 -67.95850372
rhand  -7.920061211e-032 -33.2840004 9.303460121
rfingers  -90 -7.125020027 -90
rthumb  -92.93752616 -24.25625642 -97.11982154
rfemur  6.454490185 17.56469917 5.461080074
rtibia  -0 0 26.64369965
rfoot  -5.042886795e-032 -10.04109955 -0.6294860244
rtoes  5.373923086 19.29304026 -105.8922705
lfemur  -37.08340073 -4.968699932 6.462240219
ltibia  -0 0 50.04949951
lfoot  -0 -6.26444006 -7.303450108
ltoes  -4.250644065 -19.5611806 -102.515957
112
root  -1.65163119 38.05311008 7.873577959 65.12597656 -79.31500244 -66.74597168
lowerback  18.54969978 6.515160084 4.18806982
upperback  6.304749966 9.067899704 4.22713995
thorax  -3.545639992 4.28012991 0.242019996
lowerneck  4.186019897 3.655220032 -3.986779928
upperneck  9.914879799 4.82227993 -3.078969955
head  2.401390076 2.100709915 -0.2706219852
lclavicle  0 -9.442270133e-015 7.951389973e-016
lhumerus  -13.98509979 -10.0880003 95.3742981
lradius  1.599691901e-031 -3.147988224e-031 116.9380035
lwrist  -7.062250077e-031 3.531125038e-031 72.24530029
lhand  -1.496451383e-031 -27.76390076 20.11240005
lfingers  90 7.125020027 -90
lthumb  89.89689403 5.08795885 91.16245106
rclavicle  0 -9.442270133e-015 7.951389973e-016
rhumerus  -8.497369766 7.111470222 -78.16159821
rradius  1.698155899e-031 3.095982975e-031 61.25510025
rwrist  0 3.531125038e-031 -67.44760132
rhand  -7.920061211e-032 -33.2840004 9.303460121
rfingers  -90 -7.125020027 -90
rthumb  -92.93752616 -24.25625642 -97.11982154
rfemur  6.775949955 18.07069969 6.115089893
rtibia  -0 0 26.68720055
rfoot  -4.517835839e-032 -12.31340027 -4.145279884
rtoes  5.373923086 19.29304026 -105.8922705
lfemur  -37.12239838 -5.063310146 6.252510071
ltibia  -0 0 47.56600189
lfoot  -0 -3.602129936 -7.818019867
ltoes  -4.250644065 -19.5611806 -102.515957
